HIERARCHY
ROOT Hips
{
	OFFSET -3.958830 18.904000 13.208200
	CHANNELS 6 Xposition Yposition Zposition Zrotation Yrotation Xrotation 
	JOINT LHipJoint
	{
		OFFSET 0.000000 0.000000 0.000000
		CHANNELS 3 Zrotation Yrotation Xrotation
		JOINT LeftUpLeg
		{
			OFFSET 1.800000 -1.400000 0.085000
			CHANNELS 3 Zrotation Yrotation Xrotation
			JOINT LeftLeg
			{
				OFFSET 2.215000 -6.000000 0.000000
				CHANNELS 3 Zrotation Yrotation Xrotation
				JOINT LeftFoot
				{
					OFFSET 2.500000 -6.900000 0.000000
					CHANNELS 3 Zrotation Yrotation Xrotation
					JOINT LeftToeBase
					{
						OFFSET 0.200000 -0.500000 1.950000
						CHANNELS 3 Zrotation Yrotation Xrotation
						End Site
						{
							OFFSET 0.000000 0.000000 0.000000
						}
					}
				}
			}
		}
	}
	JOINT RHipJoint
	{
		OFFSET 0.000000 0.000000 0.000000
		CHANNELS 3 Zrotation Yrotation Xrotation
		JOINT RightUpLeg
		{
			OFFSET -1.800000 -1.400000 0.085000
			CHANNELS 3 Zrotation Yrotation Xrotation
			JOINT RightLeg
			{
				OFFSET -2.215000 -6.000000 0.000000
				CHANNELS 3 Zrotation Yrotation Xrotation
				JOINT RightFoot
				{
					OFFSET -2.500000 -6.900000 0.000000
					CHANNELS 3 Zrotation Yrotation Xrotation
					JOINT RightToeBase
					{
						OFFSET -0.200000 -0.500000 1.950000
						CHANNELS 3 Zrotation Yrotation Xrotation
						End Site
						{
							OFFSET 0.000000 0.000000 0.000000
						}
					}
				}
			}
		}
	}
	JOINT LowerBack
	{
		OFFSET 0.000000 0.000000 0.000000
		CHANNELS 3 Zrotation Yrotation Xrotation
		JOINT Spine
		{
			OFFSET -0.087000 1.940000 -0.288900
			CHANNELS 3 Zrotation Yrotation Xrotation
			JOINT Spine1
			{
				OFFSET 0.000000 1.950000 0.060000
				CHANNELS 3 Zrotation Yrotation Xrotation
				JOINT Neck
				{
					OFFSET 0.000000 0.000000 0.000000
					CHANNELS 3 Zrotation Yrotation Xrotation
					JOINT Neck1
					{
						OFFSET 0.000000 1.600000 0.340000
						CHANNELS 3 Zrotation Yrotation Xrotation
						JOINT Head
						{
							OFFSET 0.000000 1.667000 -0.240000
							CHANNELS 3 Zrotation Yrotation Xrotation
							End Site
							{
								OFFSET 0.000000 0.000000 0.000000
							}
						}
					}
				}
				JOINT LeftShoulder
				{
					OFFSET 0.000000 0.000000 0.000000
					CHANNELS 3 Zrotation Yrotation Xrotation
					JOINT LeftArm
					{
						OFFSET 2.700000 1.550000 -0.730000
						CHANNELS 3 Zrotation Yrotation Xrotation
						JOINT LeftForeArm
						{
							OFFSET 5.450000 0.000000 0.000000
							CHANNELS 3 Zrotation Yrotation Xrotation
							JOINT LeftHand
							{
								OFFSET 3.450000 0.000000 0.000000
								CHANNELS 3 Zrotation Yrotation Xrotation
								JOINT LeftHandIndex1
								{
									OFFSET 0.750000 0.000000 0.000000
									CHANNELS 3 Zrotation Yrotation Xrotation
									End Site
									{
										OFFSET 0.000000 0.000000 0.000000
									}
								}
							}
						}
					}
				}
				JOINT RightShoulder
				{
					OFFSET 0.000000 0.000000 0.000000
					CHANNELS 3 Zrotation Yrotation Xrotation
					JOINT RightArm
					{
						OFFSET -2.700000 1.550000 -0.730000
						CHANNELS 3 Zrotation Yrotation Xrotation
						JOINT RightForeArm
						{
							OFFSET -5.450000 0.000000 0.000000
							CHANNELS 3 Zrotation Yrotation Xrotation
							JOINT RightHand
							{
								OFFSET -3.450000 0.000000 0.000000
								CHANNELS 3 Zrotation Yrotation Xrotation
								JOINT RightHandIndex1
								{
									OFFSET -0.750000 0.000000 0.000000
									CHANNELS 3 Zrotation Yrotation Xrotation
									End Site
									{
										OFFSET 0.000000 0.000000 0.000000
									}
								}
							}
						}
					}
				}
			}
		}
	}
}
MOTION
Frames: 13
Frame Time: 0.016667
-0.697650 17.482490 0.817860 1.153634 -6.742397 -3.984740 -14.718483 12.931691 2.088326 17.807943 0.030529 -23.521790 9.614769 5.422576 37.443838 -0.006629 6.233887 2.178849 0.243130 0.304080 0.017860 18.669007 -11.610614 3.151426 -33.423867 1.080126 -20.211324 13.074841 -11.162825 25.341574 -0.250628 -6.150309 1.895246 0.297510 0.189220 0.136020 -4.735287 1.009935 -7.429838 20.901217 0.356260 14.107738 -8.552435 3.978619 13.490701 9.054295 -5.612944 -9.934596 -8.399477 -1.863872 25.706061 -5.289720 -5.227870 -11.182060 -16.315965 -4.198772 6.739380 -55.565967 -1.865616 -2.875588 -95.691997 -83.888270 76.242272 -4.514601 1.220251 -0.029460 0.154550 -0.069860 0.116200 -1.263286 11.887050 2.611541 -5.265153 18.820775 -7.851394 -113.605473 33.301691 -53.317329 2.126765 -1.781103 -0.027370 0.177630 0.033950 0.048830 
-0.721470 17.487720 0.806310 1.340381 -7.125898 -4.582425 -14.729296 12.984286 2.111251 18.122910 0.061401 -23.178934 9.078564 5.690152 37.521470 -0.020152 6.296250 2.150223 0.260490 0.325410 0.026010 18.654557 -11.642859 3.069110 -33.025411 0.843189 -20.533654 12.087357 -11.182294 26.566433 -0.258443 -6.153634 1.892479 0.316650 0.189870 0.130380 -4.691286 0.894254 -7.423452 20.103217 0.092306 14.420581 -7.903914 3.499840 14.783081 8.518726 -5.489306 -10.088825 -8.472085 -1.153048 26.708433 -4.665660 -4.980590 -11.657040 -15.364840 -5.144485 7.168037 -54.935610 -3.590799 -5.790459 -134.747298 -82.618689 121.653488 -3.571474 2.717306 -0.015750 0.148290 -0.064190 0.119230 -1.058300 12.382584 2.558265 -1.652980 21.677704 -6.571551 -117.207742 34.163950 -59.254926 2.076854 -1.756085 -0.034400 0.194450 0.032870 0.045050 
-0.759180 17.483400 0.799450 1.430815 -7.196216 -5.422074 -14.736689 12.975040 2.149602 19.135748 0.168366 -22.662055 7.361541 6.447730 37.046773 -0.063634 6.370583 2.111853 0.291080 0.369350 0.046700 18.659164 -11.686381 2.923088 -32.502443 0.445677 -20.747107 10.810997 -11.352007 28.527953 -0.288700 -6.241853 1.859330 0.357650 0.192940 0.121460 -4.685831 0.840772 -7.363102 19.238954 -0.062390 14.596776 -6.846211 2.887095 16.678348 7.235250 -4.923226 -9.895500 -7.876247 -0.758598 27.897589 -3.985230 -4.612100 -12.577980 -14.184988 -6.296077 7.473225 -51.386294 -7.765701 1.010012 153.483374 -75.193308 -156.873226 -3.724947 3.648348 -0.002590 0.149140 -0.057290 0.120800 0.513465 12.630204 2.545543 5.520700 25.554404 -3.340186 -122.817941 36.914138 -71.187545 2.012329 -1.701905 -0.047520 0.226340 0.029790 0.036260 
-0.804920 17.465110 0.793910 1.483635 -6.831006 -5.982696 -14.732218 12.856752 2.253549 20.332103 0.118361 -22.578625 4.970731 7.407976 36.262672 -0.097873 6.462408 2.066645 0.317700 0.405360 0.071180 18.694068 -11.685133 2.801281 -32.180196 -0.005358 -21.175452 9.853814 -11.763045 30.812433 -0.337989 -6.444199 1.783289 0.390730 0.195400 0.124370 -4.749452 0.842449 -7.362899 18.795691 -0.338329 14.674773 -6.635527 2.010383 17.804536 5.676303 -3.904298 -9.508668 -6.506298 -0.821970 29.203539 -3.615370 -3.922730 -12.838760 -13.301598 -7.437367 6.823679 -43.835382 -12.723594 4.678752 136.335785 -63.549524 -124.544598 -3.944795 3.282924 0.000020 0.160260 -0.050890 0.122830 2.757219 12.468944 3.222727 15.788277 28.392111 1.400028 -127.877914 42.392685 -87.603361 1.992423 -1.673660 -0.053780 0.239770 0.022030 0.026850 
-0.842570 17.431600 0.769280 1.535128 -6.308258 -6.624296 -14.719395 12.681927 2.419076 21.495069 -0.088387 -22.745468 2.357394 8.417948 35.540568 -0.106929 6.591546 2.007195 0.341480 0.438530 0.102680 18.739755 -11.690636 2.685080 -31.867891 -0.445220 -21.998098 8.388143 -12.113128 33.790377 -0.409637 -6.672536 1.701897 0.408620 0.181370 0.118460 -4.839977 0.903083 -7.439020 18.494732 -0.461112 15.519989 -7.341862 1.263136 18.217177 4.169938 -2.113625 -9.124900 -3.845919 -1.224310 30.890006 -2.531820 -3.004760 -13.295040 -13.260405 -9.547185 5.240429 -32.150406 -17.356909 4.025449 126.214484 -55.278526 -98.777351 -3.932385 2.849812 0.023700 0.150110 -0.024150 0.124740 5.575048 12.583366 4.789560 26.653998 28.872995 5.400741 -134.675405 49.256991 -108.934065 2.029876 -1.747585 -0.058340 0.253130 0.004780 0.014900 
-0.883870 17.369890 0.738750 1.675637 -5.415740 -7.421979 -14.733772 12.477436 2.689603 22.683534 -0.492027 -23.290718 -0.703369 9.692548 35.348815 -0.065267 6.887990 1.882903 0.346740 0.447280 0.120440 18.766132 -11.650350 2.535206 -31.740480 -0.917970 -22.957427 6.072963 -12.290480 37.614740 -0.499560 -6.959920 1.601518 0.397240 0.153400 0.117260 -4.863297 0.844423 -7.603758 17.650273 -0.588466 17.485643 -7.725223 0.605022 17.931809 2.346892 -0.400806 -9.007608 -1.346802 -2.173759 31.976087 -1.073870 -2.528040 -13.864680 -13.269678 -12.857753 3.517463 -18.355922 -19.830436 0.453286 117.625513 -49.560643 -77.999920 -3.809560 2.629803 0.057030 0.123850 0.011250 0.117980 8.959880 13.967248 6.779135 36.011191 26.809949 6.152388 -144.457765 55.251352 -132.786150 2.038248 -1.899044 -0.051690 0.246410 -0.005510 0.006210 
-0.937470 17.273820 0.689950 1.430285 -5.739892 -7.818559 -14.807881 12.274122 3.076669 24.862439 -0.782692 -24.208337 -3.712530 11.239902 35.643830 0.010137 7.404052 1.675953 0.359830 0.467080 0.143520 18.755752 -11.437715 2.406825 -30.612314 -0.895540 -25.312612 2.931516 -12.043703 42.786617 -0.619217 -7.299116 1.494059 0.389880 0.120020 0.112900 -4.750580 0.518401 -7.841347 16.074282 -0.781126 20.347379 -6.370218 -0.106944 16.769023 -0.119295 0.557620 -8.890572 -0.092554 -2.500670 32.023273 0.536310 -1.591200 -15.216040 -12.312815 -15.854828 1.957983 -4.849136 -20.231478 -3.925365 109.936458 -43.315756 -59.871747 -3.712393 2.637403 0.101910 0.088110 0.055210 0.112570 12.634381 15.703798 8.046069 43.607229 24.229714 4.219928 -158.949189 62.573097 -161.702562 1.968330 -1.951355 -0.045920 0.246010 -0.019170 -0.004490 
-0.987000 17.176570 0.634390 1.035530 -6.148617 -8.686147 -14.917257 12.307246 3.399700 26.823906 -1.090188 -24.532022 -5.251103 12.179233 36.213630 0.093772 7.799055 1.522269 0.360810 0.463910 0.164460 18.669066 -11.274917 2.236990 -28.722103 -0.728948 -27.043940 -1.488958 -10.622150 47.352062 -0.724908 -7.476243 1.454064 0.360930 0.079100 0.103380 -4.465835 -0.076141 -8.047032 13.462525 -0.744686 23.824256 -3.299220 -0.547936 15.725819 -2.519187 1.098220 -9.246420 0.269960 -2.779196 33.098122 1.964130 -1.005510 -15.987050 -10.242734 -18.615827 1.190028 5.434333 -19.684088 -7.656369 101.716484 -37.355327 -45.045341 -3.667094 2.733695 0.153250 0.040460 0.102020 0.105960 15.198995 17.846780 8.978157 47.655883 21.630638 0.160546 -179.864667 67.289409 165.175711 1.935199 -1.735746 -0.038640 0.240410 -0.034210 -0.014290 
-1.020250 17.066370 0.601520 0.414784 -7.127185 -9.275916 -15.043852 12.289954 3.778354 29.436063 -1.290398 -24.883977 -6.824285 13.435139 37.319902 0.211631 8.362551 1.315837 0.348820 0.449420 0.164520 18.579643 -11.086332 2.054285 -26.445106 -0.418544 -28.439056 -6.067357 -8.472935 50.483625 -0.798079 -7.532823 1.458596 0.330850 0.058320 0.095350 -4.159626 -0.598449 -8.239831 10.872104 -0.283195 26.688704 0.231220 -0.605424 14.646636 -4.702370 1.600323 -9.669572 0.670758 -2.809368 34.166177 3.512280 -0.458160 -15.975670 -7.090979 -20.077244 0.793359 13.864668 -18.226004 -10.175099 93.775510 -32.560520 -34.379953 -3.681284 2.845790 0.185770 0.008810 0.129390 0.099950 16.343808 18.951873 9.400730 50.055863 19.412919 -3.453681 156.903703 68.289422 131.071597 2.062163 -1.339720 -0.033750 0.232430 -0.038110 -0.016650 
-1.052140 16.958370 0.584080 0.102247 -7.769969 -9.816127 -15.160069 12.380154 3.999785 31.002849 -1.557130 -25.207080 -6.929178 14.054020 38.830470 0.314343 8.715141 1.192140 0.328240 0.421860 0.164430 18.478476 -10.948054 1.935038 -24.907787 -0.263373 -28.975723 -9.276588 -6.773669 52.278220 -0.854579 -7.601505 1.457778 0.289840 0.035250 0.092880 -3.843851 -1.104603 -8.363397 8.374716 0.601475 28.615963 3.616292 -0.332570 14.020323 -6.299405 2.009416 -10.244303 0.836929 -3.146067 35.989921 3.841380 -0.282900 -14.916100 -4.245575 -21.300010 0.656268 20.325546 -17.047127 -11.701770 84.549853 -29.209654 -26.149639 -3.729396 2.928377 0.198590 -0.011360 0.149270 0.092730 16.677819 20.066340 10.010058 51.503797 17.914459 -5.591314 145.588335 67.338606 112.862313 2.262634 -1.148476 -0.020150 0.209640 -0.043800 -0.016460 
-1.091990 16.876870 0.582890 0.047078 -8.221969 -10.624670 -15.257121 12.619245 4.084734 31.811711 -1.687063 -24.918842 -6.317961 14.131285 39.694457 0.358611 8.839324 1.150378 0.308730 0.397420 0.149440 18.362285 -10.922772 1.772737 -23.605242 -0.229783 -28.189634 -11.744302 -5.178575 52.518443 -0.866064 -7.529630 1.501667 0.266890 0.035100 0.079920 -3.522719 -1.619056 -8.369332 5.878952 1.617106 29.676558 6.719493 -0.092098 13.964272 -7.541209 2.139391 -10.569981 0.553580 -3.131018 37.981602 4.720110 -0.487360 -13.773010 -2.114723 -21.954467 0.457863 25.198812 -16.241415 -12.233609 74.140145 -28.472904 -20.519803 -3.779321 2.956894 0.205800 -0.023500 0.149210 0.090230 17.078092 20.978842 10.456123 51.158624 17.836696 -6.701481 143.314792 67.385416 109.187859 2.325293 -1.092252 -0.022120 0.208000 -0.039730 -0.012300 
-1.106990 16.825250 0.600940 0.245860 -8.276557 -11.159925 -15.285298 12.770594 4.071203 31.692416 -1.770260 -24.754844 -5.560033 14.020307 40.571599 0.369902 8.882827 1.131535 0.320510 0.412440 0.155920 18.313592 -10.979415 1.669005 -23.113565 -0.359538 -27.309467 -12.892069 -4.426951 52.178293 -0.866808 -7.465511 1.526632 0.276710 0.029260 0.077870 -3.402505 -1.806398 -8.321076 5.192688 1.996485 29.461573 7.780876 -0.129613 14.549716 -7.704596 2.158412 -10.594925 0.382259 -2.969244 39.412816 4.645560 -0.481150 -13.248070 -1.025761 -22.358927 0.321441 25.963810 -17.013693 -12.033612 67.755287 -30.323202 -18.776768 -3.773390 2.952338 0.201890 -0.024890 0.151350 0.092530 16.358612 21.690919 10.472894 49.671762 19.584627 -6.514034 145.334607 68.368583 113.400426 2.275210 -1.077913 -0.017570 0.206180 -0.045960 -0.011350 
-1.122490 16.810380 0.631270 0.281049 -9.068354 -11.237783 -15.266709 12.847575 3.958067 31.433524 -1.484115 -24.206805 -4.621952 13.792829 40.975090 0.363506 8.860742 1.143701 0.331040 0.425320 0.159940 18.317745 -11.058232 1.661437 -22.712957 -0.246308 -26.962367 -13.064735 -4.196202 51.795884 -0.847319 -7.418752 1.544404 0.295600 0.040110 0.082260 -3.423535 -1.736069 -8.244134 6.039256 2.150954 27.915309 7.730969 -0.061326 15.533209 -7.140364 1.919093 -10.391280 -0.021317 -2.869799 40.223524 3.609620 -0.645550 -12.413320 -1.105233 -21.949979 0.194465 22.282774 -19.028306 -10.896311 65.011361 -35.574508 -20.288388 -3.702681 2.888558 0.176510 -0.003210 0.136710 0.099780 15.331194 21.816636 10.270131 47.868700 21.612437 -5.356906 154.671934 69.944100 128.551335 2.109539 -1.238663 -0.016730 0.207440 -0.049940 -0.008310 
